<svg width="576" height="390" viewBox="46 70 576 390" xmlns="http://www.w3.org/2000/svg">
<rect x="46" y="70" width="576" height="390" fill="#0e1022"/>
<defs>
<radialGradient id="glow1" cx="50%" cy="50%" r="50%"><stop offset="0%" stop-color="#00e5ff" stop-opacity="0.25"/><stop offset="100%" stop-color="#0e1022" stop-opacity="0"/></radialGradient>
<radialGradient id="glow2" cx="50%" cy="50%" r="50%"><stop offset="0%" stop-color="#7c4dff" stop-opacity="0.15"/><stop offset="100%" stop-color="#0e1022" stop-opacity="0"/></radialGradient>
<radialGradient id="nodeGlow" cx="50%" cy="50%" r="50%"><stop offset="0%" stop-color="#00e5ff" stop-opacity="0.6"/><stop offset="100%" stop-color="#00e5ff" stop-opacity="0"/></radialGradient>
</defs>
<ellipse cx="340" cy="260" rx="220" ry="180" fill="url(#glow2)"/>
<ellipse cx="340" cy="260" rx="160" ry="130" fill="url(#glow1)"/>
<g stroke="#1a3a5c" stroke-width="0.3" fill="none" opacity="0.4">
<path d="M340 90 L340 430"/>
<path d="M180 260 L500 260"/>
<path d="M210 140 L470 380"/>
<path d="M470 140 L210 380"/>
</g>
<g opacity="0.12">
<circle cx="340" cy="260" r="80" stroke="#00e5ff" stroke-width="0.5" fill="none"/>
<circle cx="340" cy="260" r="130" stroke="#00e5ff" stroke-width="0.5" fill="none"/>
<circle cx="340" cy="260" r="185" stroke="#7c4dff" stroke-width="0.5" fill="none"/>
<circle cx="340" cy="260" r="220" stroke="#7c4dff" stroke-width="0.4" fill="none" stroke-dasharray="4 6"/>
</g>
<g stroke="#00bcd4" stroke-width="0.5" fill="none" opacity="0.3">
<polygon points="340,160 290,220 310,290 370,290 390,220"/>
<polygon points="270,200 240,260 270,320 340,340 410,320 440,260 410,200 340,170"/>
<polygon points="230,180 200,260 230,340 340,380 450,340 480,260 450,180 340,140"/>
</g>
<g fill="none" stroke="#00e5ff" stroke-width="0.8" opacity="0.5">
<path d="M290,190 L340,170 L390,190 L410,230 L400,280 L360,310 L310,310 L280,280 L270,230 Z"/>
<path d="M310,200 L340,185 L370,200 L385,230 L380,265 L355,290 L325,290 L300,265 L295,230 Z"/>
</g>
<g stroke="#00e5ff" stroke-width="0.4" opacity="0.35">
<line x1="310" y1="200" x2="260" y2="170"/>
<line x1="370" y1="200" x2="420" y2="170"/>
<line x1="385" y1="230" x2="440" y2="220"/>
<line x1="380" y1="265" x2="430" y2="300"/>
<line x1="355" y1="290" x2="370" y2="340"/>
<line x1="325" y1="290" x2="310" y2="340"/>
<line x1="300" y1="265" x2="250" y2="300"/>
<line x1="295" y1="230" x2="240" y2="220"/>
<line x1="340" y1="185" x2="340" y2="140"/>
<line x1="260" y1="170" x2="220" y2="150"/>
<line x1="420" y1="170" x2="460" y2="150"/>
<line x1="440" y1="220" x2="480" y2="210"/>
<line x1="430" y1="300" x2="465" y2="330"/>
<line x1="370" y1="340" x2="380" y2="375"/>
<line x1="310" y1="340" x2="300" y2="375"/>
<line x1="250" y1="300" x2="215" y2="330"/>
<line x1="240" y1="220" x2="200" y2="210"/>
</g>
<g>
<circle cx="340" cy="185" r="3" fill="#00e5ff" opacity="0.9"/>
<circle cx="310" cy="200" r="2.5" fill="#00e5ff" opacity="0.8"/>
<circle cx="370" cy="200" r="2.5" fill="#00e5ff" opacity="0.8"/>
<circle cx="385" cy="230" r="3" fill="#00e5ff" opacity="0.9"/>
<circle cx="295" cy="230" r="3" fill="#00e5ff" opacity="0.9"/>
<circle cx="380" cy="265" r="2.5" fill="#00e5ff" opacity="0.8"/>
<circle cx="300" cy="265" r="2.5" fill="#00e5ff" opacity="0.8"/>
<circle cx="355" cy="290" r="2" fill="#00e5ff" opacity="0.7"/>
<circle cx="325" cy="290" r="2" fill="#00e5ff" opacity="0.7"/>
<circle cx="260" cy="170" r="2" fill="#4dd0e1" opacity="0.6"/>
<circle cx="420" cy="170" r="2" fill="#4dd0e1" opacity="0.6"/>
<circle cx="440" cy="220" r="2" fill="#4dd0e1" opacity="0.6"/>
<circle cx="430" cy="300" r="2" fill="#4dd0e1" opacity="0.6"/>
<circle cx="370" cy="340" r="2" fill="#4dd0e1" opacity="0.6"/>
<circle cx="310" cy="340" r="2" fill="#4dd0e1" opacity="0.6"/>
<circle cx="250" cy="300" r="2" fill="#4dd0e1" opacity="0.6"/>
<circle cx="240" cy="220" r="2" fill="#4dd0e1" opacity="0.6"/>
<circle cx="340" cy="140" r="1.5" fill="#7c4dff" opacity="0.5"/>
<circle cx="220" cy="150" r="1.5" fill="#7c4dff" opacity="0.5"/>
<circle cx="460" cy="150" r="1.5" fill="#7c4dff" opacity="0.5"/>
<circle cx="480" cy="210" r="1.5" fill="#7c4dff" opacity="0.5"/>
<circle cx="465" cy="330" r="1.5" fill="#7c4dff" opacity="0.5"/>
<circle cx="380" cy="375" r="1.5" fill="#7c4dff" opacity="0.5"/>
<circle cx="300" cy="375" r="1.5" fill="#7c4dff" opacity="0.5"/>
<circle cx="215" cy="330" r="1.5" fill="#7c4dff" opacity="0.5"/>
<circle cx="200" cy="210" r="1.5" fill="#7c4dff" opacity="0.5"/>
</g>
<g opacity="0.15">
<circle cx="150" cy="120" r="1" fill="#00e5ff"/>
<circle cx="530" cy="100" r="0.8" fill="#7c4dff"/>
<circle cx="580" cy="200" r="1.2" fill="#00e5ff"/>
<circle cx="100" cy="300" r="0.8" fill="#4dd0e1"/>
<circle cx="560" cy="380" r="1" fill="#7c4dff"/>
<circle cx="120" cy="420" r="0.8" fill="#00e5ff"/>
<circle cx="520" cy="440" r="1" fill="#4dd0e1"/>
<circle cx="600" cy="300" r="0.7" fill="#4dd0e1"/>
<circle cx="80" cy="180" r="0.7" fill="#7c4dff"/>
</g>
<ellipse cx="340" cy="240" rx="50" ry="40" fill="url(#nodeGlow)" opacity="0.3"/>
<g>
<circle cx="130" cy="130" r="32" fill="none" stroke="#1e3a5a" stroke-width="1"/>
<circle cx="130" cy="130" r="32" fill="#0e1022" fill-opacity="0.7"/>
<line x1="130" y1="130" x2="220" y2="165" stroke="#1e3a5a" stroke-width="0.5" stroke-dasharray="3 4"/>
<g transform="translate(130,130)">
<circle cx="0" cy="-5" r="8" fill="none" stroke="#00e5ff" stroke-width="1.2" opacity="0.8"/>
<line x1="-4" y1="-1" x2="4" y2="-1" stroke="#00e5ff" stroke-width="1.2" opacity="0.8"/>
<line x1="0" y1="-5" x2="0" y2="3" stroke="#00e5ff" stroke-width="1.2" opacity="0.8"/>
<line x1="5" y1="3" x2="12" y2="10" stroke="#00e5ff" stroke-width="1.2" opacity="0.8"/>
</g>
<text x="130" y="153" text-anchor="middle" fill="#4dd0e1" font-family="sans-serif" font-size="9" font-weight="500" opacity="0.8">SEO</text>
</g>
<g>
<circle cx="540" cy="120" r="32" fill="none" stroke="#1e3a5a" stroke-width="1"/>
<circle cx="540" cy="120" r="32" fill="#0e1022" fill-opacity="0.7"/>
<line x1="540" y1="120" x2="460" y2="160" stroke="#1e3a5a" stroke-width="0.5" stroke-dasharray="3 4"/>
<g transform="translate(540,115)">
<rect x="-10" y="-10" width="20" height="14" rx="2" fill="none" stroke="#7c4dff" stroke-width="1.2" opacity="0.8"/>
<line x1="-6" y1="4" x2="-6" y2="10" stroke="#7c4dff" stroke-width="1.2" opacity="0.8"/>
<line x1="6" y1="4" x2="6" y2="10" stroke="#7c4dff" stroke-width="1.2" opacity="0.8"/>
<circle cx="0" cy="0" r="2" fill="#7c4dff" opacity="0.6"/>
</g>
<text x="540" y="148" text-anchor="middle" fill="#b388ff" font-family="sans-serif" font-size="9" font-weight="500" opacity="0.8">API</text>
</g>
<g>
<circle cx="580" cy="280" r="32" fill="none" stroke="#1e3a5a" stroke-width="1"/>
<circle cx="580" cy="280" r="32" fill="#0e1022" fill-opacity="0.7"/>
<line x1="580" y1="280" x2="480" y2="250" stroke="#1e3a5a" stroke-width="0.5" stroke-dasharray="3 4"/>
<g transform="translate(580,275)">
<rect x="-10" y="-8" width="20" height="16" rx="1" fill="none" stroke="#ff80ab" stroke-width="1.2" opacity="0.8"/>
<line x1="-6" y1="-4" x2="6" y2="-4" stroke="#ff80ab" stroke-width="0.8" opacity="0.6"/>
<line x1="-6" y1="0" x2="6" y2="0" stroke="#ff80ab" stroke-width="0.8" opacity="0.6"/>
<line x1="-6" y1="4" x2="2" y2="4" stroke="#ff80ab" stroke-width="0.8" opacity="0.6"/>
</g>
<text x="580" y="305" text-anchor="middle" fill="#ff80ab" font-family="sans-serif" font-size="9" font-weight="500" opacity="0.8">DATA</text>
</g>
<g>
<circle cx="500" cy="420" r="32" fill="none" stroke="#1e3a5a" stroke-width="1"/>
<circle cx="500" cy="420" r="32" fill="#0e1022" fill-opacity="0.7"/>
<line x1="500" y1="420" x2="420" y2="350" stroke="#1e3a5a" stroke-width="0.5" stroke-dasharray="3 4"/>
<g transform="translate(500,415)">
<polyline points="-10,8 -4,-2 2,4 10,-8" fill="none" stroke="#69f0ae" stroke-width="1.3" opacity="0.8"/>
</g>
<text x="500" y="443" text-anchor="middle" fill="#69f0ae" font-family="sans-serif" font-size="9" font-weight="500" opacity="0.8">GROWTH</text>
</g>
<g>
<circle cx="180" cy="420" r="32" fill="none" stroke="#1e3a5a" stroke-width="1"/>
<circle cx="180" cy="420" r="32" fill="#0e1022" fill-opacity="0.7"/>
<line x1="180" y1="420" x2="260" y2="350" stroke="#1e3a5a" stroke-width="0.5" stroke-dasharray="3 4"/>
<g transform="translate(180,412)">
<circle cx="0" cy="-4" r="5" fill="none" stroke="#ffd740" stroke-width="1.2" opacity="0.8"/>
<path d="M-8,6 Q-8,0 -3,-4" fill="none" stroke="#ffd740" stroke-width="1" opacity="0.6"/>
<path d="M8,6 Q8,0 3,-4" fill="none" stroke="#ffd740" stroke-width="1" opacity="0.6"/>
<circle cx="-7" cy="2" r="3" fill="none" stroke="#ffd740" stroke-width="0.8" opacity="0.5"/>
<circle cx="7" cy="2" r="3" fill="none" stroke="#ffd740" stroke-width="0.8" opacity="0.5"/>
</g>
<text x="180" y="445" text-anchor="middle" fill="#ffd740" font-family="sans-serif" font-size="9" font-weight="500" opacity="0.8">USERS</text>
</g>
<g>
<circle cx="90" cy="310" r="32" fill="none" stroke="#1e3a5a" stroke-width="1"/>
<circle cx="90" cy="310" r="32" fill="#0e1022" fill-opacity="0.7"/>
<line x1="90" y1="310" x2="200" y2="280" stroke="#1e3a5a" stroke-width="0.5" stroke-dasharray="3 4"/>
<g transform="translate(90,305)">
<polygon points="0,-10 -9,5 9,5" fill="none" stroke="#40c4ff" stroke-width="1.2" opacity="0.8"/>
<polygon points="0,0 -5,8 5,8" fill="none" stroke="#40c4ff" stroke-width="0.8" opacity="0.5"/>
</g>
<text x="90" y="338" text-anchor="middle" fill="#40c4ff" font-family="sans-serif" font-size="9" font-weight="500" opacity="0.8">DESIGN</text>
</g>
</svg>
